HIERARCHY
ROOT hips_JNT
{
    OFFSET 0 0 0
    CHANNELS 6 Xposition Yposition Zposition Zrotation Xrotation Yrotation
    JOINT spine_JNT
    {
        OFFSET -0.000424254 9.31981 2.54342
        CHANNELS 3 Zrotation Xrotation Yrotation
        JOINT spine1_JNT
        {
            OFFSET 0 10.8731 -4.54485e-05
            CHANNELS 3 Zrotation Xrotation Yrotation
            JOINT spine2_JNT
            {
                OFFSET 0 12.4264 -5.95116
                CHANNELS 3 Zrotation Xrotation Yrotation
                JOINT neck_JNT
                {
                    OFFSET 0 13.9797 -1.46048
                    CHANNELS 3 Zrotation Xrotation Yrotation
                    JOINT head_JNT
                    {
                        OFFSET 0 5.8702 2.0915
                        CHANNELS 3 Zrotation Xrotation Yrotation
                        End Site
                        {
                            OFFSET 0 0 0
                        }
                    }
                }
                JOINT l_shoulder_JNT
                {
                    OFFSET 4.39914 12.861 -1.48501
                    CHANNELS 3 Zrotation Xrotation Yrotation
                    JOINT l_arm_JNT
                    {
                        OFFSET 8.75735 -2.31198 -0.0490516
                        CHANNELS 3 Zrotation Xrotation Yrotation
                        JOINT l_forearm_JNT
                        {
                            OFFSET 26.9001 -4.76837e-05 1.2666e-05
                            CHANNELS 3 Zrotation Xrotation Yrotation
                            JOINT l_hand_JNT
                            {
                                OFFSET 23.0148 -4.76837e-05 -3.72529e-06
                                CHANNELS 3 Zrotation Xrotation Yrotation
                                JOINT l_handThumb1_JNT
                                {
                                    OFFSET 3.63 -0.779998 2.13
                                    CHANNELS 3 Zrotation Xrotation Yrotation
                                    JOINT l_handThumb2_JNT
                                    {
                                        OFFSET 3.55114 -2.11837 2.24006
                                        CHANNELS 3 Zrotation Xrotation Yrotation
                                        JOINT l_handThumb3_JNT
                                        {
                                            OFFSET 2.15911 -1.11631 0.963467
                                            CHANNELS 3 Zrotation Xrotation Yrotation
                                            End Site
                                            {
                                                OFFSET 0 0 0
                                            }
                                        }
                                    }
                                }
                                JOINT l_handIndex1_JNT
                                {
                                    OFFSET 10.5149 -0.0410199 2.19757
                                    CHANNELS 3 Zrotation Xrotation Yrotation
                                    JOINT l_handIndex2_JNT
                                    {
                                        OFFSET 2.75183 -0.102866 -0.139054
                                        CHANNELS 3 Zrotation Xrotation Yrotation
                                        JOINT l_handIndex3_JNT
                                        {
                                            OFFSET 2.35301 -0.0733972 -0.0904871
                                            CHANNELS 3 Zrotation Xrotation Yrotation
                                            End Site
                                            {
                                                OFFSET 0 0 0
                                            }
                                        }
                                    }
                                }
                                JOINT l_handMiddle1_JNT
                                {
                                    OFFSET 10.0671 0.139201 0.0595726
                                    CHANNELS 3 Zrotation Xrotation Yrotation
                                    JOINT l_handMiddle2_JNT
                                    {
                                        OFFSET 3.90903 -0.288403 -0.119066
                                        CHANNELS 3 Zrotation Xrotation Yrotation
                                        JOINT l_handMiddle3_JNT
                                        {
                                            OFFSET 2.3284 -0.0191092 -0.0594396
                                            CHANNELS 3 Zrotation Xrotation Yrotation
                                            End Site
                                            {
                                                OFFSET 0 0 0
                                            }
                                        }
                                    }
                                }
                                JOINT l_handRing1_JNT
                                {
                                    OFFSET 9.46811 0.132239 -1.80983
                                    CHANNELS 3 Zrotation Xrotation Yrotation
                                    JOINT l_handRing2_JNT
                                    {
                                        OFFSET 3.28153 -0.224054 -0.0339366
                                        CHANNELS 3 Zrotation Xrotation Yrotation
                                        JOINT l_handRing3_JNT
                                        {
                                            OFFSET 2.245 -0.0702143 -0.00838935
                                            CHANNELS 3 Zrotation Xrotation Yrotation
                                            End Site
                                            {
                                                OFFSET 0 0 0
                                            }
                                        }
                                    }
                                }
                                JOINT l_handPinky1_JNT
                                {
                                    OFFSET 8.49077 -0.0777721 -3.58415
                                    CHANNELS 3 Zrotation Xrotation Yrotation
                                    JOINT l_handPinky2_JNT
                                    {
                                        OFFSET 2.53217 -0.0730753 -0.0170402
                                        CHANNELS 3 Zrotation Xrotation Yrotation
                                        JOINT l_handPinky3_JNT
                                        {
                                            OFFSET 1.95121 0.0251174 0.0170089
                                            CHANNELS 3 Zrotation Xrotation Yrotation
                                            End Site
                                            {
                                                OFFSET 0 0 0
                                            }
                                        }
                                    }
                                }
                            }
                        }
                    }
                }
                JOINT r_shoulder_JNT
                {
                    OFFSET -4.39782 12.8606 -1.48501
                    CHANNELS 3 Zrotation Xrotation Yrotation
                    JOINT r_arm_JNT
                    {
                        OFFSET -8.75732 -2.312 -0.0490502
                        CHANNELS 3 Zrotation Xrotation Yrotation
                        JOINT r_forearm_JNT
                        {
                            OFFSET -26.9 0 1.00583e-05
                            CHANNELS 3 Zrotation Xrotation Yrotation
                            JOINT r_hand_JNT
                            {
                                OFFSET -23.0149 0 0
                                CHANNELS 3 Zrotation Xrotation Yrotation
                                JOINT r_handThumb1_JNT
                                {
                                    OFFSET -3.63 -0.779998 2.13
                                    CHANNELS 3 Zrotation Xrotation Yrotation
                                    JOINT r_handThumb2_JNT
                                    {
                                        OFFSET -3.5512 -2.118 2.24006
                                        CHANNELS 3 Zrotation Xrotation Yrotation
                                        JOINT r_handThumb3_JNT
                                        {
                                            OFFSET -2.1591 -1.116 0.963467
                                            CHANNELS 3 Zrotation Xrotation Yrotation
                                            End Site
                                            {
                                                OFFSET 0 0 0
                                            }
                                        }
                                    }
                                }
                                JOINT r_handIndex1_JNT
                                {
                                    OFFSET -10.5149 -0.0409961 2.19756
                                    CHANNELS 3 Zrotation Xrotation Yrotation
                                    JOINT r_handIndex2_JNT
                                    {
                                        OFFSET -2.7518 -0.102997 -0.13905
                                        CHANNELS 3 Zrotation Xrotation Yrotation
                                        JOINT r_handIndex3_JNT
                                        {
                                            OFFSET -2.353 -0.0730038 -0.0904899
                                            CHANNELS 3 Zrotation Xrotation Yrotation
                                            End Site
                                            {
                                                OFFSET 0 0 0
                                            }
                                        }
                                    }
                                }
                                JOINT r_handMiddle1_JNT
                                {
                                    OFFSET -10.0671 0.139999 0.05957
                                    CHANNELS 3 Zrotation Xrotation Yrotation
                                    JOINT r_handMiddle2_JNT
                                    {
                                        OFFSET -3.9091 -0.288999 -0.11907
                                        CHANNELS 3 Zrotation Xrotation Yrotation
                                        JOINT r_handMiddle3_JNT
                                        {
                                            OFFSET -2.3284 -0.019002 -0.05944
                                            CHANNELS 3 Zrotation Xrotation Yrotation
                                            End Site
                                            {
                                                OFFSET 0 0 0
                                            }
                                        }
                                    }
                                }
                                JOINT r_handRing1_JNT
                                {
                                    OFFSET -9.4681 0.133002 -1.80983
                                    CHANNELS 3 Zrotation Xrotation Yrotation
                                    JOINT r_handRing2_JNT
                                    {
                                        OFFSET -3.2816 -0.224996 -0.0339396
                                        CHANNELS 3 Zrotation Xrotation Yrotation
                                        JOINT r_handRing3_JNT
                                        {
                                            OFFSET -2.245 -0.0699997 -0.0083901
                                            CHANNELS 3 Zrotation Xrotation Yrotation
                                            End Site
                                            {
                                                OFFSET 0 0 0
                                            }
                                        }
                                    }
                                }
                                JOINT r_handPinky1_JNT
                                {
                                    OFFSET -8.4908 -0.0769973 -3.58415
                                    CHANNELS 3 Zrotation Xrotation Yrotation
                                    JOINT r_handPinky2_JNT
                                    {
                                        OFFSET -2.5322 -0.0740051 -0.0170402
                                        CHANNELS 3 Zrotation Xrotation Yrotation
                                        JOINT r_handPinky3_JNT
                                        {
                                            OFFSET -1.9512 0.0259995 0.0170097
                                            CHANNELS 3 Zrotation Xrotation Yrotation
                                            End Site
                                            {
                                                OFFSET 0 0 0
                                            }
                                        }
                                    }
                                }
                            }
                        }
                    }
                }
            }
        }
    }
    JOINT l_upleg_JNT
    {
        OFFSET 10.0614 -5.18575 -0.706233
        CHANNELS 3 Zrotation Xrotation Yrotation
        JOINT l_leg_JNT
        {
            OFFSET -0.348572 -45.5824 -0.819168
            CHANNELS 3 Zrotation Xrotation Yrotation
            JOINT l_foot_JNT
            {
                OFFSET 0.349145 -42.3325 -1.70849
                CHANNELS 3 Zrotation Xrotation Yrotation
                JOINT l_toebase_JNT
                {
                    OFFSET 0.0702709 -8.12666 12.8887
                    CHANNELS 3 Zrotation Xrotation Yrotation
                    End Site
                    {
                        OFFSET 0 0 0
                    }
                }
            }
        }
    }
    JOINT r_upleg_JNT
    {
        OFFSET -10.061 -5.18577 -0.706233
        CHANNELS 3 Zrotation Xrotation Yrotation
        JOINT r_leg_JNT
        {
            OFFSET 0.34858 -45.5824 -0.819165
            CHANNELS 3 Zrotation Xrotation Yrotation
            JOINT r_foot_JNT
            {
                OFFSET -0.34918 -42.3325 -1.70849
                CHANNELS 3 Zrotation Xrotation Yrotation
                JOINT r_toebase_JNT
                {
                    OFFSET -0.0702001 -8.12666 12.8887
                    CHANNELS 3 Zrotation Xrotation Yrotation
                    End Site
                    {
                        OFFSET 0 0 0
                    }
                }
            }
        }
    }
}
MOTION
Frames: 4
Frame Time: 0.033333
0.154027 96.5999 -0.207719 4.94206 19.241 18.2341 -0.949351 -0.0594342 0 4.20311 3.02839 13.1289 4.26887e-07 1.92099e-06 0 14.2403 23.0799 -11.5264 -2.37349 -11.4454 -0.262442 -4.26887e-07 6.61674e-06 0 -22.0641 11.2756 -5.30303 -53.6378 48.4094 -83.2845 3.84198e-06 -2.8625e-14 0 4.10661 20.7048 -22.2077 -0 0 0 -15.9722 -0.221229 1.57715 -25.2557 7.29405 1.63514 -32.5829 9.17718 2.68813 -21.6166 6.30663 1.20332 -29.4834 5.62176 1.47986 -37.983 7.01698 2.41706 -25.25 4.87631 1.09288 -33.5816 -3.16594 -0.956126 -43.2031 -3.91628 -1.55163 -28.7765 -2.75606 -0.706649 -36.918 -6.85035 -2.28898 -47.6026 -8.40169 -3.71145 -31.604 -5.98328 -1.69531 -4.26887e-07 6.61674e-06 0 64.848 6.04669 9.50649 -37.6485 -5.05459 14.7546 4.69575e-06 -3.49861e-14 0 -4.10661 20.7048 22.2077 -0 0 0 17.2508 0.257797 1.69899 27.3023 7.83501 -1.90612 35.2411 9.8209 -3.12621 23.3631 6.78443 -1.40386 31.8609 6.0265 -1.72233 41.0573 7.48368 -2.80582 27.2827 5.23802 -1.27286 36.2766 -3.38615 1.11064 46.6741 -4.16072 1.79575 31.0847 -2.95558 0.822338 39.9047 -7.31125 2.65768 51.4719 -8.89243 4.29316 34.1549 -6.4067 1.96953 -0.0306654 -26.8346 5.24035 -0.507568 17.477 -0.153233 -9.1988 -6.30453 -0.873119 -0.00227082 -0.820026 -0.316518 -10.9808 -72.2313 -6.58685 -33.2647 79.6048 27.9551 -2.77476e-06 -1.2273e-06 0 -4.26887e-07 3.36173e-06 0 
0.449355 96.5787 -0.466175 4.31745 17.5825 18.024 -0.654611 -0.0524427 0 3.97639 2.90692 12.3695 8.53774e-07 1.70755e-06 0 16.9442 18.9221 -13.4909 -5.11315 -7.33154 -0.375344 4.26887e-07 3.84198e-06 0 -25.7016 18.997 -1.91022 -37.3145 40.126 -94.4919 1.28066e-06 -6.83019e-06 0 4.10661 20.7048 -22.2077 -0 0 0 -16.1258 -0.225478 1.59049 -25.5013 7.35955 1.66784 -32.9018 9.25558 2.7389 -21.8263 6.36435 1.22651 -29.7689 5.67091 1.50867 -38.352 7.07414 2.46261 -25.4941 4.9201 1.11345 -33.9054 -3.19278 -0.975575 -43.6201 -3.94643 -1.57963 -29.0538 -2.78027 -0.720904 -37.2765 -6.90673 -2.33201 -48.067 -8.46269 -3.77937 -31.9103 -6.03479 -1.72732 4.26887e-07 3.84198e-06 0 64.6698 6.87172 10.8362 -34.1612 -5.13498 16.6056 -4.26887e-07 3.41509e-06 0 -4.10661 20.7048 22.2077 -0 0 0 17.2295 0.257164 1.69807 27.2681 7.82606 -1.90036 35.1967 9.81032 -3.11869 23.3339 6.7765 -1.39995 31.8212 6.01983 -1.71732 41.0059 7.47606 -2.79883 27.2487 5.23203 -1.26669 36.2316 -3.38254 1.10711 46.6161 -4.15676 1.79139 31.0462 -2.95229 0.819478 39.8548 -7.30371 2.65119 51.4072 -8.88456 4.28293 34.1123 -6.39973 1.96516 1.65354 -26.5986 8.0113 -0.524843 19.9867 -0.331022 -8.95413 -7.28134 -2.97139 -0.00227305 -0.817372 -0.30901 -2.3364 -66.559 1.02869 -21.745 78.0094 17.6844 4.01197e-13 1.24864e-05 0 8.19987e-16 5.33608e-08 0 
1.00396 96.6592 -0.690367 4.20663 15.9133 17.8006 -0.934352 -0.0355928 0.0395647 3.12621 2.60754 10.5099 4.26887e-07 -4.26887e-07 0 18.1845 15.3505 -14.2608 -6.56884 -2.81818 -0.240663 -8.53773e-07 9.17807e-06 0 -33.6447 23.8733 2.96295 -24.0601 27.9492 -98.8507 5.97642e-06 -1.02453e-05 0 4.10661 20.7048 -22.2077 -0 0 0 -16.3326 -0.23126 1.61152 -25.832 7.44749 1.71002 -33.3312 9.36065 2.80805 -22.1085 6.44191 1.25739 -30.1532 5.73685 1.54557 -38.8489 7.15061 2.52383 -25.8227 4.9789 1.1426 -34.3411 -3.22874 -0.997002 -44.1813 -3.98667 -1.61975 -29.427 -2.81276 -0.73913 -37.7592 -6.98218 -2.39101 -48.6922 -8.54393 -3.87187 -32.3226 -6.10385 -1.77073 -8.53773e-07 9.17807e-06 0 66.3883 8.67329 13.2235 -31.0156 -5.52468 19.729 -1.4941e-06 -1.05753e-13 0 -4.10661 20.7048 22.2077 -0 0 0 17.2144 0.256718 1.69623 27.244 7.81974 -1.8983 35.1653 9.80286 -3.11391 23.3134 6.77091 -1.39939 31.7932 6.01512 -1.71459 40.9697 7.47068 -2.7938 27.2248 5.22781 -1.26855 36.1999 -3.37999 1.1064 46.5752 -4.15397 1.78832 31.019 -2.94997 0.820432 39.8196 -7.2984 2.64676 51.3616 -8.879 4.27616 34.0822 -6.39482 1.96197 2.28021 -25.5439 9.20226 -0.539683 21.2584 -0.552491 -8.54065 -7.94017 -3.73898 -0.00227305 -0.817292 -0.30901 3.06512 -57.5126 5.46933 -15.2874 71.9819 11.1344 -2.98821e-06 1.10991e-05 0 -2.61899e-14 1.65419e-06 0 
1.90219 96.9271 -0.756832 5.04743 14.0683 17.3052 -1.87203 -0.01654 0.0559529 1.70887 2.27681 8.15973 8.53774e-07 1.70755e-06 0 16.626 14.3322 -12.972 -4.50262 0.51037 0.0395647 8.53774e-07 1.70755e-06 0 -42.8041 25.3917 8.1945 -12.4753 14.211 -97.5103 -1.10991e-05 5.12264e-06 0 4.10661 20.7048 -22.2077 -0 0 0 -16.3968 -0.23307 1.6183 -25.9348 7.47475 1.72233 -33.4646 9.39317 2.82943 -22.1962 6.46597 1.2704 -30.2726 5.75727 1.55768 -39.0032 7.17425 2.54329 -25.9248 4.99713 1.15147 -34.4765 -3.23987 -1.00716 -44.3556 -3.99909 -1.63083 -29.5429 -2.82283 -0.742301 -37.9092 -7.00552 -2.40895 -48.8864 -8.56895 -3.90007 -32.4507 -6.12524 -1.78438 8.53774e-07 1.70755e-06 0 69.5178 10.7593 15.4555 -27.142 -6.09439 24.8729 4.45563e-06 1.70755e-06 0 -4.10661 20.7048 22.2077 -0 0 0 17.1636 0.255215 1.69253 27.1625 7.7984 -1.88548 35.0594 9.77762 -3.09526 23.2438 6.75202 -1.38985 31.6986 5.9992 -1.7036 40.8473 7.4525 -2.77806 27.1439 5.21354 -1.25864 36.0927 -3.37136 1.10073 46.4371 -4.14452 1.77779 30.9272 -2.94212 0.816608 39.7007 -7.28041 2.63103 51.2075 -8.86019 4.25248 33.9807 -6.3782 1.95037 1.21613 -22.975 8.17594 -0.542881 20.602 -0.694358 -7.96219 -8.14347 -2.52135 -0.0022735 -0.817205 -0.30901 4.52336 -46.7476 7.37412 -12.915 62.8905 7.91837 -8.53774e-07 1.07789e-05 0 2.95692e-14 1.86763e-06 0 
